<mxfile host="app.diagrams.net" modified="2021-05-28T06:29:38.117Z" agent="5.0 (Windows)" etag="lw2q4fkDxGAM6bs_mrfn" version="14.4.6" type="github" pages="2">
  <diagram id="Gk592L4hnnQ9GCLihXDh" name="stage1">
    <mxGraphModel dx="827" dy="439" grid="1" gridSize="10" guides="1" tooltips="1" connect="1" arrows="1" fold="1" page="1" pageScale="1" pageWidth="827" pageHeight="1169" math="0" shadow="0">
      <root>
        <mxCell id="0" />
        <object label="bk1" id="1">
          <mxCell parent="0" />
        </object>
        <mxCell id="yNH93C0ZbHh35sX8YeWS-34" value="旧环境" style="shape=umlFrame;whiteSpace=wrap;html=1;width=70;height=30;boundedLbl=1;verticalAlign=middle;align=left;spacingLeft=5;rounded=0;strokeColor=#d6b656;fillColor=#fff2cc;sketch=0;fontStyle=1;fontSize=16;strokeWidth=2;" vertex="1" parent="1">
          <mxGeometry x="180" y="160" width="160" height="350" as="geometry" />
        </mxCell>
        <mxCell id="f5HnmFyCWbLnepRgtMc0-1" value="新环境" style="shape=umlFrame;whiteSpace=wrap;html=1;width=70;height=30;boundedLbl=1;verticalAlign=middle;align=left;spacingLeft=5;rounded=0;strokeColor=#82b366;fillColor=#d5e8d4;sketch=0;fontStyle=1;fontSize=16;strokeWidth=2;" vertex="1" parent="1">
          <mxGeometry x="390" y="160" width="160" height="350" as="geometry" />
        </mxCell>
        <object label="run1" id="yNH93C0ZbHh35sX8YeWS-21">
          <mxCell parent="0" />
        </object>
        <mxCell id="yNH93C0ZbHh35sX8YeWS-22" value="" style="edgeStyle=orthogonalEdgeStyle;rounded=0;orthogonalLoop=1;jettySize=auto;html=1;fillColor=#fff2cc;strokeColor=#d6b656;exitX=0.55;exitY=0.95;exitDx=0;exitDy=0;exitPerimeter=0;fontStyle=1" edge="1" parent="yNH93C0ZbHh35sX8YeWS-21" source="yNH93C0ZbHh35sX8YeWS-23" target="yNH93C0ZbHh35sX8YeWS-29">
          <mxGeometry relative="1" as="geometry">
            <Array as="points">
              <mxPoint x="284" y="330" />
              <mxPoint x="250" y="330" />
            </Array>
          </mxGeometry>
        </mxCell>
        <mxCell id="yNH93C0ZbHh35sX8YeWS-23" value="MQ" style="ellipse;shape=cloud;whiteSpace=wrap;html=1;fillColor=#fff2cc;strokeColor=#d6b656;fontStyle=1" vertex="1" parent="yNH93C0ZbHh35sX8YeWS-21">
          <mxGeometry x="240" y="250" width="80" height="60" as="geometry" />
        </mxCell>
        <mxCell id="yNH93C0ZbHh35sX8YeWS-24" style="edgeStyle=orthogonalEdgeStyle;rounded=0;orthogonalLoop=1;jettySize=auto;html=1;fillColor=#fff2cc;strokeColor=#d6b656;fontStyle=1" edge="1" parent="yNH93C0ZbHh35sX8YeWS-21" source="yNH93C0ZbHh35sX8YeWS-25" target="yNH93C0ZbHh35sX8YeWS-23">
          <mxGeometry relative="1" as="geometry" />
        </mxCell>
        <mxCell id="yNH93C0ZbHh35sX8YeWS-25" value="frontend" style="rounded=1;whiteSpace=wrap;html=1;fillColor=#fff2cc;strokeColor=#d6b656;fontStyle=1" vertex="1" parent="yNH93C0ZbHh35sX8YeWS-21">
          <mxGeometry x="240" y="200" width="80" height="30" as="geometry" />
        </mxCell>
        <mxCell id="yNH93C0ZbHh35sX8YeWS-26" value="" style="endArrow=classic;html=1;entryX=0.5;entryY=0;entryDx=0;entryDy=0;exitX=0;exitY=0.5;exitDx=0;exitDy=0;fontStyle=1" edge="1" parent="yNH93C0ZbHh35sX8YeWS-21" source="yNH93C0ZbHh35sX8YeWS-27" target="yNH93C0ZbHh35sX8YeWS-25">
          <mxGeometry width="50" height="50" relative="1" as="geometry">
            <mxPoint x="380" y="90" as="sourcePoint" />
            <mxPoint x="440" y="150" as="targetPoint" />
            <Array as="points">
              <mxPoint x="280" y="100" />
            </Array>
          </mxGeometry>
        </mxCell>
        <mxCell id="yNH93C0ZbHh35sX8YeWS-27" value="" style="image;html=1;image=img/lib/clip_art/networking/Cloud_128x128.png;fontStyle=1" vertex="1" parent="yNH93C0ZbHh35sX8YeWS-21">
          <mxGeometry x="330" y="60" width="80" height="80" as="geometry" />
        </mxCell>
        <mxCell id="yNH93C0ZbHh35sX8YeWS-28" value="" style="shape=mxgraph.cisco.security.firewall;html=1;pointerEvents=1;dashed=0;fillColor=#036897;strokeColor=#ffffff;strokeWidth=2;verticalLabelPosition=bottom;verticalAlign=top;align=center;outlineConnect=0;fontStyle=1" vertex="1" parent="yNH93C0ZbHh35sX8YeWS-21">
          <mxGeometry x="350" y="250" width="30" height="250" as="geometry" />
        </mxCell>
        <mxCell id="yNH93C0ZbHh35sX8YeWS-40" style="edgeStyle=orthogonalEdgeStyle;rounded=0;orthogonalLoop=1;jettySize=auto;html=1;exitX=0.5;exitY=1;exitDx=0;exitDy=0;fillColor=#fff2cc;strokeColor=#d6b656;fontStyle=1" edge="1" parent="yNH93C0ZbHh35sX8YeWS-21" source="yNH93C0ZbHh35sX8YeWS-29" target="yNH93C0ZbHh35sX8YeWS-38">
          <mxGeometry relative="1" as="geometry">
            <Array as="points">
              <mxPoint x="247" y="400" />
              <mxPoint x="230" y="400" />
            </Array>
          </mxGeometry>
        </mxCell>
        <mxCell id="yNH93C0ZbHh35sX8YeWS-29" value="service-impl" style="rounded=1;whiteSpace=wrap;html=1;fillColor=#fff2cc;strokeColor=#d6b656;fontStyle=1" vertex="1" parent="yNH93C0ZbHh35sX8YeWS-21">
          <mxGeometry x="210" y="360" width="75" height="30" as="geometry" />
        </mxCell>
        <mxCell id="yNH93C0ZbHh35sX8YeWS-30" value="" style="edgeStyle=orthogonalEdgeStyle;rounded=0;orthogonalLoop=1;jettySize=auto;html=1;fillColor=#d5e8d4;strokeColor=#82b366;fontStyle=1" edge="1" parent="yNH93C0ZbHh35sX8YeWS-21" source="yNH93C0ZbHh35sX8YeWS-23" target="yNH93C0ZbHh35sX8YeWS-31">
          <mxGeometry relative="1" as="geometry">
            <mxPoint x="460" y="310" as="sourcePoint" />
            <Array as="points">
              <mxPoint x="284" y="330" />
              <mxPoint x="428" y="330" />
            </Array>
          </mxGeometry>
        </mxCell>
        <mxCell id="yNH93C0ZbHh35sX8YeWS-31" value="service-impl" style="rounded=1;whiteSpace=wrap;html=1;fillColor=#d5e8d4;strokeColor=#82b366;fontStyle=1" vertex="1" parent="yNH93C0ZbHh35sX8YeWS-21">
          <mxGeometry x="400" y="360" width="75" height="30" as="geometry" />
        </mxCell>
        <mxCell id="yNH93C0ZbHh35sX8YeWS-38" value="DB" style="shape=datastore;whiteSpace=wrap;html=1;sketch=0;strokeWidth=2;fillColor=#fff2cc;strokeColor=#d6b656;fontStyle=1" vertex="1" parent="yNH93C0ZbHh35sX8YeWS-21">
          <mxGeometry x="210" y="440" width="50" height="50" as="geometry" />
        </mxCell>
        <mxCell id="yNH93C0ZbHh35sX8YeWS-39" style="edgeStyle=orthogonalEdgeStyle;rounded=0;orthogonalLoop=1;jettySize=auto;html=1;fillColor=#d5e8d4;strokeColor=#82b366;fontStyle=1" edge="1" parent="yNH93C0ZbHh35sX8YeWS-21" target="yNH93C0ZbHh35sX8YeWS-38" source="yNH93C0ZbHh35sX8YeWS-31">
          <mxGeometry relative="1" as="geometry">
            <mxPoint x="427.5" y="390" as="sourcePoint" />
            <Array as="points">
              <mxPoint x="428" y="410" />
              <mxPoint x="240" y="410" />
            </Array>
          </mxGeometry>
        </mxCell>
        <mxCell id="f5HnmFyCWbLnepRgtMc0-19" value="" style="group;fontStyle=1" vertex="1" connectable="0" parent="yNH93C0ZbHh35sX8YeWS-21">
          <mxGeometry x="283.4" y="439.2" width="40" height="50.80000000000001" as="geometry" />
        </mxCell>
        <mxCell id="f5HnmFyCWbLnepRgtMc0-11" value="" style="shadow=0;dashed=0;html=1;strokeColor=#d6b656;fillColor=#fff2cc;labelPosition=center;verticalLabelPosition=bottom;verticalAlign=top;align=center;outlineConnect=0;shape=mxgraph.veeam.2d.file;sketch=0;strokeWidth=2;fontStyle=1" vertex="1" parent="f5HnmFyCWbLnepRgtMc0-19">
          <mxGeometry x="1.6000000000000227" width="36.8" height="50.8" as="geometry" />
        </mxCell>
        <mxCell id="f5HnmFyCWbLnepRgtMc0-18" value="FTP" style="text;html=1;align=center;verticalAlign=middle;resizable=0;points=[];autosize=1;fontStyle=1" vertex="1" parent="f5HnmFyCWbLnepRgtMc0-19">
          <mxGeometry y="20.80000000000001" width="40" height="20" as="geometry" />
        </mxCell>
      </root>
    </mxGraphModel>
  </diagram>
  <diagram id="c3WHt_6JOhCdddGOZ3G9" name="Page-2">
    <mxGraphModel dx="868" dy="461" grid="1" gridSize="10" guides="1" tooltips="1" connect="1" arrows="1" fold="1" page="1" pageScale="1" pageWidth="827" pageHeight="1169" math="0" shadow="0">
      <root>
        <mxCell id="XTFp-0jO-gxrumauzBZG-0" />
        <mxCell id="XTFp-0jO-gxrumauzBZG-1" parent="XTFp-0jO-gxrumauzBZG-0" />
      </root>
    </mxGraphModel>
  </diagram>
</mxfile>
